<svg xmlns="http://www.w3.org/2000/svg" viewBox="0 0 62 62" width="62" height="62">
	<style>
		tspan { white-space:pre }
		.shp0 { fill: none;stroke: #ffffff;stroke-linecap:round;stroke-width: 3;stroke-dasharray: 0,6 } 
		.shp1 { fill: #ffffff } 
	</style>
	<g id="how-it-works">
		<g id="steps">
			<g id="step-4-pay">
				<path id="Эллипс 1" class="shp0" d="M31 1C47.57 1 61 14.43 61 31C61 47.57 47.57 61 31 61C14.43 61 1 47.57 1 31C1 14.43 14.43 1 31 1Z" />
				<path id="Shape 1" class="shp1" d="M35.21 29.72C34.08 29.07 32.87 28.58 31.67 28.06C30.98 27.76 30.32 27.42 29.73 26.93C28.58 25.98 28.8 24.43 30.15 23.82C30.53 23.64 30.93 23.59 31.34 23.56C32.91 23.48 34.39 23.77 35.81 24.48C36.52 24.83 36.75 24.72 36.99 23.96C37.24 23.15 37.45 22.34 37.68 21.52C37.84 20.98 37.65 20.62 37.15 20.39C36.24 19.98 35.31 19.68 34.33 19.52C33.05 19.31 33.05 19.31 33.04 17.97C33.04 16.1 33.04 16.1 31.22 16.1C30.96 16.1 30.69 16.09 30.43 16.1C29.58 16.12 29.44 16.28 29.41 17.16C29.4 17.56 29.41 17.96 29.41 18.36C29.4 19.54 29.4 19.52 28.31 19.93C25.68 20.92 24.05 22.78 23.88 25.75C23.72 28.38 25.05 30.16 27.14 31.46C28.42 32.26 29.84 32.73 31.21 33.35C31.74 33.59 32.25 33.87 32.69 34.26C34 35.38 33.76 37.24 32.21 37.95C31.37 38.33 30.5 38.42 29.59 38.3C28.2 38.12 26.87 37.75 25.61 37.07C24.88 36.67 24.66 36.78 24.41 37.6C24.19 38.32 24 39.03 23.81 39.75C23.55 40.72 23.65 40.95 24.54 41.4C25.68 41.97 26.89 42.26 28.13 42.47C29.1 42.63 29.13 42.67 29.14 43.71C29.14 44.18 29.14 44.66 29.15 45.13C29.16 45.73 29.43 46.07 30.02 46.08C30.69 46.1 31.37 46.1 32.04 46.08C32.59 46.07 32.87 45.76 32.87 45.18C32.87 44.54 32.9 43.89 32.88 43.24C32.85 42.58 33.12 42.25 33.73 42.08C35.14 41.68 36.33 40.9 37.25 39.73C39.81 36.51 38.84 31.8 35.21 29.72Z" />
			</g>
		</g>
	</g>
</svg>