<svg xmlns="http://www.w3.org/2000/svg" viewBox="0 0 140 48" width="140" height="48">
	<style>
		tspan { white-space:pre }
		.shp0 { fill: #ff5151 } 
	</style>
	<g id="top-menu-white">
		<path id="Фигура 1 копия" class="shp0" d="M46.27 40.37C45.52 40.57 44.57 40.79 43.38 40.78C42.26 40.77 41.33 40.45 40.56 39.79C39.88 39.22 39.58 38.47 39.61 37.44C40.12 37.5 40.59 37.53 41 37.53C43.34 37.55 45.62 36.88 47.76 35.53C50.06 34.08 51.28 32.16 51.38 29.82C51.43 28.83 51.17 27.45 49.71 26.53C48.7 25.9 47.35 25.57 45.72 25.56C44.05 25.54 42.37 26.18 40.72 27.45C39.1 28.69 37.82 30.22 36.91 31.99C35.99 33.78 35.48 35.65 35.4 37.56C35.31 39.64 36 41.31 37.46 42.52C38.82 43.64 40.49 44.22 42.43 44.24C45.06 44.26 47.73 43.83 49.57 42.95C51.57 41.98 55.3 40.22 55.68 38.81L55.79 36.35L55.42 34.81C54.97 34.64 52.04 38.82 46.27 40.37ZM46.62 31.67C46.27 32.29 45.65 32.91 44.79 33.51C43.94 34.11 43.01 34.39 41.94 34.39C41.19 34.38 40.43 34.33 40.13 34.05C39.64 33.58 42.12 28.66 45.57 28.69C46.11 28.69 46.34 28.85 46.72 29.21C47.14 29.59 47.18 29.9 47.17 30.1C47.15 30.54 46.97 31.06 46.62 31.67ZM65.28 25.75C64.2 25.72 63.13 26.02 62.09 26.64C61.06 27.26 60.15 28.11 59.41 29.16C59.09 29.61 58.79 30.06 58.51 30.52C58.83 28.35 59.11 27.03 59.01 26.16C58.94 25.63 58.74 25.48 58.55 25.4C58.2 25.24 57.76 25.21 57.29 25.2C56.71 25.18 56.12 25.39 55.54 25.81C55.54 25.81 55.15 26.16 55.07 26.67C54.99 27.2 54.82 29.5 54.43 33.51C54.04 37.57 53.93 39.88 53.97 42.65C53.99 43.81 54.54 44.65 55.57 44.68C56 44.69 56.46 44.57 56.93 44.32C57.56 43.97 57.99 43.31 58.14 42.44L58.37 40.42C58.93 37.07 60.04 34.04 61.65 31.41C62.58 29.87 63.44 29.13 64.27 29.15C66.79 29.23 68.25 35.76 71.43 32.58C72.26 31.75 69.32 25.87 65.28 25.75ZM72.68 25.88C72.14 25.88 71.64 26.11 71.23 26.57C70.65 27.22 69.98 28.75 69.43 35.06C69.23 37.41 68.83 39.3 68.92 42.3C68.94 43.29 69.05 44.25 70.72 44.28C75.08 44.35 78.95 39.74 79.11 36.62C79.36 31.95 73.03 41.93 73.5 38.38L74.07 33.7C74.27 31.4 74.63 29.71 74.8 27.79C74.88 26.88 74.48 26.38 74.06 26.22C73.31 25.93 73.08 25.89 72.68 25.88ZM95.34 41.5C94.98 41.49 94.17 41.4 94.05 41.23L94.02 41.2C93.79 40.91 93.43 40.09 93.52 37.81L93.91 33.89L93.92 33.84C94.01 31.62 93.73 29.75 93.06 28.29C92.2 26.41 90.38 25.44 87.66 25.42C85.78 25.41 84.01 26.14 82.39 27.6C80.84 28.99 79.62 30.73 78.76 32.75C77.91 34.76 77.43 36.71 77.35 38.56C77.27 40.49 77.59 42.02 78.31 43.09C79.08 44.24 80.23 44.83 81.71 44.84C82.99 44.85 84.14 44.68 85.14 44.33C86.74 43.8 88.34 42.55 90.01 40.54C90.13 41.49 90.35 42.31 90.66 42.96C91.02 43.75 91.86 44.71 93.85 44.72C94.7 44.73 97.62 44.61 99.11 42.25L100.22 39.28L99.21 38.49C98.62 38.07 97.72 41.51 95.34 41.5ZM81.69 40.14C81.32 39.71 81.16 39.2 81.18 38.57C81.22 37.82 81.37 36.94 81.64 35.95C81.91 34.95 82.31 33.87 82.82 32.73C83.29 31.68 83.95 30.79 84.78 30.08C85.51 29.45 86.26 29.15 87.07 29.15C87.92 29.16 88.56 29.34 89.02 29.71C89.8 30.35 90.16 31.14 90.12 32.13C90.04 33.86 89.15 35.76 87.48 37.81C85.9 39.73 84.36 40.69 82.91 40.68C82.39 40.68 82.01 40.51 81.69 40.14ZM136.06 41.86C135.7 41.86 135.17 41.84 134.84 41.46C134.6 41.19 134.15 40.46 134.25 38.18L134.64 34.26L134.64 34.21C134.74 31.99 134.45 30.12 133.78 28.66C132.92 26.78 131.1 25.81 128.38 25.79C126.51 25.78 124.74 26.51 123.12 27.97C121.57 29.36 120.34 31.1 119.48 33.12C118.63 35.13 118.16 37.08 118.08 38.93C117.99 40.86 118.31 42.39 119.03 43.46C119.81 44.61 120.95 45.2 122.43 45.21C123.71 45.22 124.87 45.05 125.87 44.7C127.46 44.17 129.07 42.92 130.74 40.91C130.86 41.86 131.08 42.68 131.39 43.33C131.74 44.12 132.58 45.08 134.58 45.09C135.42 45.1 139.01 44.85 139.83 42.62C140.02 42.11 140.23 41.43 139.2 40.84C138.15 40.24 137.4 41.88 136.06 41.86ZM122.42 40.51C122.05 40.08 121.88 39.57 121.91 38.94C121.94 38.19 122.1 37.31 122.36 36.32C122.64 35.32 123.03 34.23 123.54 33.1C124.02 32.05 124.68 31.16 125.5 30.45C126.24 29.82 126.99 29.52 127.8 29.52C128.64 29.53 129.28 29.71 129.74 30.08C130.53 30.72 130.88 31.51 130.84 32.5C130.76 34.23 129.88 36.13 128.2 38.17C126.62 40.1 125.09 41.06 123.63 41.05C123.11 41.05 122.73 40.88 122.42 40.51ZM117.94 39.39C116.69 40.85 114.32 42.19 114.19 40.55L114.19 40.55C113.96 39.38 113.94 38.07 114.13 36.66C114.34 35.12 114.52 33.6 114.68 32.12C114.85 30.47 114.68 29.04 114.16 27.88C113.58 26.59 112.47 25.91 110.88 25.87C109.78 25.85 108.74 26.06 107.79 26.51C106.84 26.95 106.05 27.51 105.43 28.17C104.84 28.81 104.26 29.66 103.72 30.7C103.56 31 103.41 31.3 103.27 31.58C103.56 29.34 103.93 27.75 103.71 26.96C103.64 26.72 103.37 26.3 103.19 26.17C102.47 25.66 101.24 25.79 100.42 26.19C99.96 26.42 99.61 26.89 99.44 27.46C99.21 28.19 99.19 29.91 98.87 32.53C98.27 37.96 97.31 42.12 98.4 43.98C98.57 44.27 98.76 44.77 100.02 44.8C100.49 44.81 101.63 44.76 102.17 44.39C102.94 43.87 103.69 42.29 105.77 35.31C106.27 33.61 106.56 32.11 107.4 30.74C108.42 29.05 110.19 29.73 110.34 30.65C110.48 31.53 110.29 32.61 110.16 33.69C109.96 35.25 109.8 36.83 109.67 38.4C109.54 40.09 109.71 41.57 110.19 42.8C110.73 44.18 111.79 44.95 113.28 44.96C115.81 44.99 117.39 43.62 118.09 43C118.49 42.63 119.39 41.78 119.77 41.38C120.21 40.92 120.91 40.05 120.19 39.01C119.39 37.86 118.35 38.92 117.94 39.39ZM76.1 22.48C75.94 24.27 74.83 24.48 73.38 24.4C71.92 24.32 70.68 23.98 70.84 22.19C70.99 20.41 72.3 19.02 73.75 19.1C75.2 19.18 76.25 20.7 76.1 22.48ZM16.91 47C10.88 46.87 6.27 44.4 3.58 39.88C1.37 36.14 0.53 31.08 1.23 25.61C1.67 22.24 2.87 15.77 6.09 10.28C9.52 4.42 14.35 1.22 20.06 1.01C26.32 0.78 29.78 3.42 31.58 5.68C34.38 9.2 34.7 13.42 34.47 15.16C34.31 16.4 33.29 17.39 32.18 17.36C31.07 17.34 29.53 16.22 29.83 15C30.67 11.55 30.47 5.05 19.71 5C15.41 4.98 12.15 7.01 9.13 12.88C6.66 17.7 -1.02 43.07 17.38 43.17C23.5 43.19 30.23 39.12 31.86 31.26C32.63 27.52 31.73 26.3 29.89 26.18C28.26 26.07 26.87 26.78 25.76 28.29C26.2 29.62 26.43 30.99 26.39 32.24C26.36 33.24 26.17 34.13 25.81 34.87C25.27 35.97 24.38 36.73 23.35 36.96C22.2 37.22 21.17 36.75 20.59 35.7C19.62 33.96 20.1 31.02 21.15 28.55C20.5 27.47 19.22 26.06 17.21 25.87C15.86 25.75 14.61 26.36 14.16 29.23C13.74 31.94 13.57 36.82 18.06 36.04C19.29 35.83 20.59 37.15 20.43 38.39C20.27 39.63 19.25 40.61 18.14 40.59C12.31 40.45 9.99 34.57 10.15 29.14C10.39 21.08 15.2 20.85 17.84 20.92C20.14 20.97 22.17 22.54 23.75 24.52C25.67 22.54 28.07 21.52 30.62 21.7C32.64 21.83 34.27 23.02 35.19 25.05C35.97 26.76 36.2 29.03 35.85 31.44C35.28 35.38 33.27 39.24 30.33 42.05C27.87 44.4 23.55 47.16 16.91 47Z" />
	</g>
</svg>