<svg xmlns="http://www.w3.org/2000/svg" viewBox="0 0 698 559" width="698" height="559">
	<style>
		tspan { white-space:pre }
		.shp0 { opacity: 0.161;fill: #ffffff } 
	</style>
	<g id="our-preferences">
		<path id="logo-shape" class="shp0" d="M398.82 456.86C354.41 352.53 276.88 359.72 267.04 359.68C253.06 359.62 172.32 326.83 150.99 327.59C145 329.16 136.54 332.5 131.62 339.29C113.99 363.61 151.11 386.4 156.14 389.78C180.83 406.35 248.27 423.43 248.27 423.43C252.4 423.35 255.8 426.63 255.88 430.76C255.95 434.88 252.67 438.29 248.54 438.36C248.54 438.36 190.71 429.87 159.42 406.46C153.34 401.91 118.99 378.22 110.63 365.73C77.67 316.54 72.79 296.82 50.78 236.69C47.38 227.41 37.3 213.88 18.04 216.94C-2.41 220.19 -0.22 245.89 0.5 253.2C8.37 332.79 58.04 427.12 121.8 471.27C170.78 505.19 219.75 526.18 317.95 532.03C376.51 535.52 441.22 558.48 441.22 558.48C441.22 558.48 426.52 521.94 398.82 456.86ZM441.22 558.48C441.22 558.48 485.78 506.24 534.75 473.94C616.87 419.77 648.78 377.11 674.24 323.24C707.38 253.13 703.23 146.6 670.25 73.74C667.23 67.05 656.27 43.7 636.93 51.11C618.73 58.09 616.76 74.85 618.46 84.59C629.46 147.66 635.09 167.18 631.15 226.26C630.15 241.26 612.25 278.94 609.26 285.92C593.87 321.85 548.03 358.12 548.03 358.12C544.41 360.11 539.87 358.81 537.87 355.2C535.87 351.59 537.18 347.05 540.8 345.05C540.8 345.05 590.66 296.54 603.76 269.84C606.42 264.4 627.18 226.1 599.75 213.86C592.09 210.44 583.09 211.77 577.12 213.41C558.27 223.42 504.74 292.18 492.66 299.22C484.17 304.18 413.43 336.71 427.13 449.28C435.68 519.48 441.22 558.48 441.22 558.48ZM75.67 227.59C78.5 235.31 81.05 242.38 83.41 248.92C94.52 279.73 101.04 297.83 113.32 319.86C120.73 311.59 131.19 305.5 143.87 302.1L144.27 301.99L147.13 301.24L150.08 301.14C165.79 300.58 190.72 308.44 229.9 321.44C243.58 325.98 262.14 332.14 268.02 333.19C268.12 333.19 268.22 333.19 268.33 333.19C277.2 332.98 304.2 332.34 335.14 346.96C360.42 358.91 381.98 377.78 399.62 403.24C402.18 372.37 411.41 345.24 427.33 322.26C446.81 294.13 470.51 281.18 478.3 276.93C478.39 276.87 478.48 276.83 478.57 276.78C483.14 272.93 496.13 258.31 505.71 247.54C533.14 216.69 550.8 197.42 564.69 190.04L567.29 188.66L570.14 187.88L570.54 187.77C583.22 184.38 595.32 184.43 605.88 187.88C605.5 162.65 602.1 143.72 596.32 111.49C595.09 104.64 593.76 97.25 592.35 89.15C589.71 74.01 592.84 56.56 603.8 43.14C564.08 6.88 510.1 -9.01 451.1 6.8C387.28 23.9 344.07 64.72 320.43 107.7C278.48 82.3 220.98 68.46 153.82 86.45C95.06 102.2 57.38 142.41 41.86 193.15C58.53 199.13 70.29 212.89 75.67 227.59Z" />
	</g>
</svg>