<svg xmlns="http://www.w3.org/2000/svg" viewBox="0 0 32 30" width="32" height="30">
	<style>
		tspan { white-space:pre }
		.shp0 { opacity: 0.502;fill: #ffffff } 
	</style>
	<g id="footer">
		<path id="FB-icon" class="shp0" d="M23.48 0L8.5 0C4.38 0 1 3.38 1 7.52L1 22.5C1 26.62 4.38 30 8.5 30L23.48 30C27.62 30 31 26.62 31 22.48L31 7.52C31 3.38 27.62 0 23.48 0ZM20.02 15L17.19 15L17.19 24.29L13.62 24.29L13.62 15L11.71 15L11.71 11.19L13.38 11.19L13.38 9.57C13.38 8.05 14.14 5.64 17.36 5.64L20.29 5.64L20.29 8.81L18.21 8.81C17.88 8.81 17.43 9.02 17.43 9.76L17.43 11.19L20.36 11.19L20.02 15Z" />
	</g>
</svg>