<svg xmlns="http://www.w3.org/2000/svg" viewBox="0 0 32 30" width="32" height="30">
	<style>
		tspan { white-space:pre }
		.shp0 { opacity: 0.502;fill: #ffffff } 
	</style>
	<g id="footer">
		<path id="in-icon" class="shp0" d="M23.46 0L8.52 0C4.38 0 1 3.38 1 7.52L1 22.5C1 26.62 4.38 30 8.52 30L23.48 30C27.62 30 31 26.62 31 22.48L31 7.52C30.98 3.38 27.6 0 23.46 0ZM10.99 24.29L6.71 24.29L6.71 11.9L10.99 11.9L10.99 24.29ZM8.83 10C7.61 10 6.64 9.02 6.64 7.81C6.64 6.6 7.61 5.62 8.83 5.62C10.04 5.62 11.02 6.6 11.02 7.81C10.99 9.02 10.02 10 8.83 10ZM25.29 24.29L25.27 24.29L21.7 24.29L21.7 18.29C21.7 16.83 21.51 14.98 19.53 14.98C17.51 14.98 17.18 16.55 17.18 18.19L17.18 24.29L13.61 24.29L13.61 11.9L16.94 11.9L16.94 13.57L17.03 13.57C17.56 12.62 18.77 11.88 20.67 11.88C24.6 11.88 25.29 14.14 25.29 17.5L25.29 24.29L25.29 24.29Z" />
	</g>
</svg>