<svg xmlns="http://www.w3.org/2000/svg" viewBox="0 0 32 30" width="32" height="30">
	<style>
		tspan { white-space:pre }
		.shp0 { opacity: 0.502;fill: #ffffff } 
	</style>
	<g id="footer">
		<path id="TW-icon" class="shp0" d="M23.46 0L8.52 0C4.38 0 1 3.38 1 7.52L1 22.5C1 26.62 4.38 30 8.52 30L23.48 30C27.62 30 31 26.62 31 22.48L31 7.52C30.98 3.38 27.6 0 23.46 0ZM23.43 11.24C23.43 11.4 23.43 11.57 23.43 11.74C23.43 16.74 19.58 22.5 12.51 22.5C10.35 22.5 8.33 21.88 6.64 20.81C6.95 20.83 7.23 20.86 7.54 20.86C9.35 20.86 10.99 20.26 12.3 19.24C10.61 19.21 9.21 18.12 8.71 16.62C8.95 16.67 9.18 16.69 9.42 16.69C9.78 16.69 10.14 16.64 10.44 16.55C8.73 16.19 7.42 14.67 7.42 12.83L7.42 12.79C7.9 13.07 8.52 13.24 9.14 13.26C8.11 12.6 7.42 11.43 7.42 10.12C7.42 9.43 7.61 8.79 7.95 8.21C9.85 10.5 12.66 12 15.85 12.17C15.77 11.88 15.75 11.6 15.75 11.31C15.75 9.21 17.46 7.52 19.58 7.52C20.67 7.52 21.67 7.98 22.39 8.71C23.27 8.55 24.08 8.24 24.81 7.79C24.53 8.67 23.91 9.4 23.13 9.88C23.91 9.79 24.65 9.6 25.34 9.29C24.81 10.05 24.17 10.71 23.43 11.24Z" />
	</g>
</svg>