<svg xmlns="http://www.w3.org/2000/svg" viewBox="0 0 60 62" width="60" height="62">
	<style>
		tspan { white-space:pre }
		.shp0 { fill: none;stroke: #ffffff;stroke-linecap:round;stroke-width: 3;stroke-dasharray: 0,6 } 
		.shp1 { fill: #ffffff } 
	</style>
	<g id="how-it-works">
		<g id="steps">
			<g id="step 3-test">
				<path id="Эллипс 1" class="shp0" d="M30 1C46.57 1 60 14.43 60 31C60 47.57 46.57 61 30 61C13.43 61 0 47.57 0 31C0 14.43 13.43 1 30 1Z" />
				<path id="Forma 1" class="shp1" d="M38.5 21.02L39.94 21.02C40.52 21.02 40.98 20.54 40.98 19.93L40.98 19.09C40.98 18.49 40.52 18 39.94 18L20.01 18C19.44 18 18.98 18.49 18.98 19.09L18.98 19.93C18.98 20.54 19.44 21.02 20.01 21.02L21.46 21.02C21.56 25.07 23.1 28.76 25.46 30.87C23.04 33.03 21.49 36.84 21.45 41.02L20.01 41.02C19.44 41.02 18.98 41.51 18.98 42.11L18.98 42.91C18.98 43.51 19.44 44 20.01 44L39.94 44C40.52 44 40.98 43.51 40.98 42.91L40.98 42.11C40.98 41.51 40.52 41.02 39.94 41.02L38.5 41.02C38.46 36.84 36.92 33.04 34.5 30.87C36.86 28.76 38.39 25.07 38.5 21.02ZM31.78 31.78L32.17 31.99C34.79 33.35 36.56 36.93 36.61 41.02L23.35 41.02C23.4 36.93 25.17 33.35 27.79 31.99L28.17 31.79C28.51 31.62 28.72 31.25 28.72 30.86C28.72 30.47 28.51 30.11 28.17 29.93L27.79 29.74C25.23 28.42 23.48 24.93 23.35 21.02L36.61 21.02C36.48 24.93 34.73 28.42 32.17 29.74L31.78 29.93C31.45 30.11 31.24 30.46 31.24 30.86C31.24 31.25 31.45 31.61 31.78 31.78ZM25.77 40L34.74 40C34.44 37.69 32.56 35.86 30.26 35.86C27.96 35.86 26.08 37.69 25.77 40ZM33.33 27.56L26.61 27.56C27.44 28.53 28.63 29.16 29.97 29.16C31.32 29.16 32.5 28.53 33.33 27.56Z" />
			</g>
		</g>
	</g>
</svg>