<svg xmlns="http://www.w3.org/2000/svg" viewBox="0 0 60 61" width="60" height="61">
	<style>
		tspan { white-space:pre }
		.shp0 { fill: none;stroke: #ffffff;stroke-linecap:round;stroke-width: 3;stroke-dasharray: 0,6 } 
		.shp1 { fill: #ffffff } 
	</style>
	<g id="how-it-works">
		<g id="steps">
			<g id="step-1-search">
				<path id="Эллипс 1" class="shp0" d="M30 0C46.57 0 60 13.43 60 30C60 46.57 46.57 60 30 60C13.43 60 0 46.57 0 30C0 13.43 13.43 0 30 0Z" />
				<path id="Forma 1" class="shp1" d="M44.63 42.87L37.42 35.66C39.21 33.48 40.29 30.69 40.29 27.64C40.29 20.66 34.62 15 27.64 15C20.66 15 15 20.66 15 27.64C15 34.62 20.66 40.29 27.64 40.29C30.69 40.29 33.47 39.21 35.65 37.43L42.86 44.63C43.35 45.12 44.14 45.12 44.63 44.63C45.12 44.15 45.12 43.35 44.63 42.87ZM27.64 37.77C22.05 37.77 17.51 33.23 17.51 27.64C17.51 22.06 22.05 17.51 27.64 17.51C33.23 17.51 37.77 22.06 37.77 27.64C37.77 33.23 33.23 37.77 27.64 37.77Z" />
			</g>
		</g>
	</g>
</svg>